{"title":"Shooter*2007*[BluRay][1080p][ENG, POL]","uid":5857688,"size":7849507038,"categoryP":"video","categoryS":"hd___movies","magnet":"?xt=urn:btih:5d37a8c70c0e143eee2901e695d7e7613f5a9325&amp;dn=Shooter%2A2007%2A%5BBluRay%5D%5B1080p%5D%5BENG%2C+POL%5D&amp;tr=udp%3A%2F%2Ftracker.openbittorrent.com%3A80&amp;tr=udp%3A%2F%2Fopen.demonii.com%3A1337&amp;tr=udp%3A%2F%2Ftracker.coppersurfer.tk%3A6969&amp;tr=udp%3A%2F%2Fexodus.desync.com%3A6969","seeders":0,"leechers":1,"uploader":"albedo040","files":1,"time":1285865940,"description":"Shooter*2007*[BluRay][1080p][ENG, POL]\n\nGeneral information:\nCountry: USA\nRelease: 8 March 2007\nGenre: Action, Crime, Mystery, Thriller \nDirector: Antoine Fuqua\nScreenplay: Jonathan Lemkin, Stephen Hunter (novel)\nOriginal Music: Mark Mancina\nCinematography by: Peter Menzies Jr., Joel Ransom\nDuration: 2h 5mn\nLanguage: English, Polish\nSubtitles: English, Polish\nRating: 7.6/10 - 17833 votes\n\nCast:\nMark Wahlberg  ...  Bob Lee Swagger  \nMichael Pena  ...  Nick Memphis  \nDanny Glover  ...  Colonel Isaac Johnson  \nKate Mara  ...  Sarah Fenn  \nElias Koteas  ...  Jack Payne  \nRhona Mitra  ...  Alourdes Galindo  \nJonathan Walker  ...  Louis Dobbler  \nJustin Louis  ...  Howard Purnell  \nTate Donovan  ...  Russ Turner  \nRade Serbedzija  ...  Michael Sandor (as Rade Sherbedgia)  \nAlan C. Peterson  ...  Officer Stanley Timmons  \nNed Beatty  ...  Senator Charles F. Meachum  \nLane Garrison  ...  Donnie Fenn  \nZak Santiago  ...  Senior Agent  \nMichael-Ann Connor  ...  Junior Agent \n\nPlot:\nA marksman living in exile is coaxed back into action after learning of a plot to kill the president. Ultimately double-crossed and framed for the attempt, he goes on the run to track the real killer and find out who exactly set him up, and why.\n\nSpecifications:\nGeneral\nFormat                           : Matroska\nOverall bit rate                 : 8 327 Kbps\n\nVideo\nFormat                           : AVC\nFormat/Info                      : Advanced Video Codec\nFormat profile                   : &lt;a class=&quot;__cf_email__&quot; href=&quot;/cdn-cgi/l/email-protection&quot; data-cfemail=&quot;fdb5949a95bdb1c9d3cd&quot;&gt;[email&amp;#160;protected]&lt;/a&gt;&lt;script cf-hash='f9e31' type=&quot;text/javascript&quot;&gt;\n/* &lt;![CDATA[ */!function(){try{var t=&quot;currentScript&quot;in document?document.currentScript:function(){for(var t=document.getElementsByTagName(&quot;script&quot;),e=t.length;e--;)if(t[e].getAttribute(&quot;cf-hash&quot;))return t[e]}();if(t&amp;&amp;t.previousSibling){var e,r,n,i,c=t.previousSibling,a=c.getAttribute(&quot;data-cfemail&quot;);if(a){for(e=&quot;&quot;,r=parseInt(a.substr(0,2),16),n=2;a.length-n;n+=2)i=parseInt(a.substr(n,2),16)^r,e+=String.fromCharCode(i);e=document.createTextNode(e),c.parentNode.replaceChild(e,c)}}}catch(u){}}();/* ]]&gt; */&lt;/script&gt;\nFormat settings, CABAC           : Yes\nFormat settings, ReFrames        : 3 frames\nMuxing mode                      : Container profile=&lt;a class=&quot;__cf_email__&quot; href=&quot;/cdn-cgi/l/email-protection&quot; data-cfemail=&quot;0752696c6968706947332937&quot;&gt;[email&amp;#160;protected]&lt;/a&gt;&lt;script cf-hash='f9e31' type=&quot;text/javascript&quot;&gt;\n/* &lt;![CDATA[ */!function(){try{var t=&quot;currentScript&quot;in document?document.currentScript:function(){for(var t=document.getElementsByTagName(&quot;script&quot;),e=t.length;e--;)if(t[e].getAttribute(&quot;cf-hash&quot;))return t[e]}();if(t&amp;&amp;t.previousSibling){var e,r,n,i,c=t.previousSibling,a=c.getAttribute(&quot;data-cfemail&quot;);if(a){for(e=&quot;&quot;,r=parseInt(a.substr(0,2),16),n=2;a.length-n;n+=2)i=parseInt(a.substr(n,2),16)^r,e+=String.fromCharCode(i);e=document.createTextNode(e),c.parentNode.replaceChild(e,c)}}}catch(u){}}();/* ]]&gt; */&lt;/script&gt;\nCodec ID                         : V_MPEG4/ISO/AVC\nBit rate                         : 7 469 Kbps\nWidth                            : 1 920 pixels\nHeight                           : 1 080 pixels\nDisplay aspect ratio             : 16:9\nFrame rate                       : 23.976 fps\n\nAudio 1\nFormat                           : AC-3\nFormat/Info                      : Audio Coding 3\nMode extension                   : CM (complete main)\nCodec ID                         : A_AC3\nBit rate mode                    : Constant\nBit rate                         : 640 Kbps\nChannel(s)                       : 6 channels\nChannel positions                : Front: L C R, Side: L R, LFE\nSampling rate                    : 48.0 KHz\nBit depth                        : 16 bits\nStream size                      : 575 MiB (8%)\nTitle                            : English\n\nAudio 2\nFormat                           : AC-3\nFormat/Info                      : Audio Coding 3\nFormat profile                   : Dolby Digital\nMode extension                   : CM (complete main)\nCodec ID                         : A_AC3\nBit rate mode                    : Constant\nBit rate                         : 224 Kbps\nChannel(s)                       : 2 channels\nChannel positions                : Front: L R\nSampling rate                    : 48.0 KHz\nBit depth                        : 16 bits\nStream size                      : 201 MiB (3%)\nTitle                            : Polish\n\nText 1\nFormat                           : UTF-8\nCodec ID                         : S_TEXT/UTF8\nCodec ID/Info                    : UTF-8 Plain Text\nTitle                            : English\n\nText 2\nFormat                           : UTF-8\nCodec ID                         : S_TEXT/UTF8\nCodec ID/Info                    : UTF-8 Plain Text\nTitle                            : Polish\n","torrent":{"xt":"urn:btih:5d37a8c70c0e143eee2901e695d7e7613f5a9325","amp;dn":"Shooter%2A2007%2A%5BBluRay%5D%5B1080p%5D%5BENG%2C+POL%5D","amp;tr":["udp%3A%2F%2Ftracker.openbittorrent.com%3A80","udp%3A%2F%2Fopen.demonii.com%3A1337","udp%3A%2F%2Ftracker.coppersurfer.tk%3A6969","udp%3A%2F%2Fexodus.desync.com%3A6969"],"infoHash":"5d37a8c70c0e143eee2901e695d7e7613f5a9325","infoHashBuffer":{"type":"Buffer","data":[93,55,168,199,12,14,20,62,238,41,1,230,149,215,231,97,63,90,147,37]},"announce":[],"urlList":[]}}